<?xml version="1.0" encoding="iso-8859-1"?>
<svg xmlns="http://www.w3.org/2000/svg" version="1.1" id="Layer_1" x="0px" y="0px" viewBox="0 0 512 512" style="enable-background:new 0 0 256 256;" xml:space="preserve" width="120" height="120">
<g>
	<path style="fill:#96ad61;" d="M451,231.099V226c0-66.301-53.699-120-120-120c-27.9,0-54.3,9.6-75,26.4   c-7.8,6.299-15,13.499-21,21.599c-15.599-11.7-34.2-17.999-54-17.999c-49.501,0-91,40.499-91,90c-49.799,0-90,40.199-90,90   c0,49.799,40.201,90,90,90h331c49.501,0,91-40.501,91-90C512,277.299,486.4,243.399,451,231.099z"/>
	<path style="fill:#7B904B;" d="M512,316c0,49.499-41.499,90-91,90H256V132.4c20.7-16.8,47.1-26.4,75-26.4   c66.301,0,120,53.699,120,120v5.099C486.4,243.399,512,277.299,512,316z"/>
	<path style="fill:#7B904B;" d="M151,331h-30c0-20.054,7.808-38.877,21.973-53.042c28.301-28.301,77.739-28.315,106.069,0.015   l-21.24,21.211c-16.963-17.021-46.641-17.021-63.604,0C155.673,307.68,151,318.974,151,331z"/>
	<path style="fill:#273B09;" d="M421,346h-30c0-16.538-13.462-30-30-30s-30,13.462-30,30h-30c0-33.091,26.909-60,60-60   S421,312.909,421,346z"/>
</g>
</svg>
