<svg height="512pt" viewBox="0 -106 512 512" width="512pt" xmlns="http://www.w3.org/2000/svg">
    <path d="m451.894531 125.078125c2.867188-68.078125-52.105469-125.078125-120.894531-125.078125-38.285156 0-73.632812 18.03125-96.085938 48.070312-15.621093-11.515624-35.09375-18.070312-54.914062-18.070312-49.625 0-90 40.375-90 90-49.738281 0-90 40.253906-90 90 0 49.738281 40.253906 90 90 90h332c49.625 0 90-40.375 90-90 0-38.683594-24.578125-72.460938-60.105469-84.921875zm-29.894531 144.921875h-332c-33.160156 0-60-26.835938-60-60 0-33.160156 26.835938-60 60-60 19.984375 0 37.847656 9.710938 48.90625 25.234375-12.21875 13.734375-18.90625 31.234375-18.90625 49.765625h30c0-24.96875 20.039062-45 46-45 12.019531 0 23.320312 4.679688 31.820312 13.179688l21.210938-21.210938c-14.164062-14.167969-33-21.96875-53.03125-21.96875-11.535156 0-22.851562 2.570312-33.03125 7.328125-10.8125-14.953125-25.761719-26.113281-42.75-32.152344-2.992188-35.089843 24.714844-65.175781 59.78125-65.175781 17.914062 0 35.332031 7.847656 46.59375 20.996094l14.386719 16.792968 10.285156-19.574218c15.621094-29.742188 46.175781-48.214844 79.734375-48.214844 50.179688 0 91 40.375 91 90 0 4.675781-.359375 9.371094-1.074219 13.953125l-2.234375 14.398437 14.324219 2.65625c28.382813 5.257813 48.984375 30.066407 48.984375 58.992188 0 33.085938-26.914062 60-60 60zm0 0"/>
    <path d="m362 180c-32.894531 0-61 26.585938-61 60h30c0-16.261719 14.195312-30 31-30 16.542969 0 30 13.457031 30 30h30c0-33.085938-26.914062-60-60-60zm0 0"/>
</svg>