<svg xmlns="http://www.w3.org/2000/svg" height="15" width="15" viewBox="0 0 1500 1500">
    <defs>
        <style>
            .cls-1 {
            fill-rule: evenodd;
            }
            #Color_Fill_2{
            fill: #990829;
            }
        </style>
    </defs>
    <path id="Color_Fill_2" class="cls-1" d="M773,134v16c88.307-1.655,164.22,26.748,226,54,174.09,76.794,348.77,273.331,351,520h16q0.495-25.5,1-51,47.49,27,95,54c10.23,6.059,32.98,12.235,38,23q-66.99,37-134,74V773h-16c1.55,82.751-23.61,156.4-49,215-77.83,179.66-272.45,360.82-526,362v16q26-.495,52-1v1q-37.5,66.99-75,134c-0.667-.33-1.333-0.67-2-1q-37.5-65.49-75-131v-1q26-.495,52-1v-16c-82.757,1.55-156.415-23.58-215-49-179.919-78.06-362.285-273.54-362-529l-16,1v52L40,772c-10.835-6.361-34.779-12.566-40-24l133-75q0.5,26,1,52l16-1c-0.776-81.318,23.832-154,49-212,77.956-179.664,272.346-360.817,526-362V133H673l57-98c5.936-9.918,11.267-30.319,22-35l73,134H773Zm-43,91-62,6c-36.251,7.341-71.361,14.543-103,27C412.636,317.99,312.643,425.888,253,579c-11.431,29.346-16.353,62.584-23,96-14.435,72.569-1.814,162.434,16,220,49.3,159.32,147.873,271.82,293,335,35.483,15.45,74.271,27.45,117,37l56,6q29,1.005,58,2c44.026-7.38,84.278-7.64,122-19,161.44-48.63,279.3-153.78,342-301,51.97-122.027,50.85-285.45,0-407C1157.71,365.644,989.737,224.308,730,225Zm20,75c10.164,7.648,9.687,94.178,13,115q9,104.99,18,210c5.911,36.987,13.312,87.761,5,125-12.126.252-64.719,2.72-70-2-9.985-19.682.02-98.487,4-123Z"/>
</svg>
